<svg id="visual" viewBox="0 0 960 540" width="960" height="540" xmlns="http://www.w3.org/2000/svg" xmlns:xlink="http://www.w3.org/1999/xlink" version="1.1"><rect x="0" y="0" width="960" height="540" fill="#001220"></rect><path d="M0 201L9.3 207.2C18.7 213.3 37.3 225.7 56.2 217.8C75 210 94 182 112.8 174.7C131.7 167.3 150.3 180.7 169.2 182.3C188 184 207 174 225.8 181C244.7 188 263.3 212 282.2 209.3C301 206.7 320 177.3 338.8 152.5C357.7 127.7 376.3 107.3 395.2 121.3C414 135.3 433 183.7 451.8 182.8C470.7 182 489.3 132 508.2 107.3C527 82.7 546 83.3 564.8 101.8C583.7 120.3 602.3 156.7 621.2 180.3C640 204 659 215 677.8 203.2C696.7 191.3 715.3 156.7 734.2 143.7C753 130.7 772 139.3 790.8 155.8C809.7 172.3 828.3 196.7 847.2 209.2C866 221.7 885 222.3 903.8 219.8C922.7 217.3 941.3 211.7 950.7 208.8L960 206L960 541L950.7 541C941.3 541 922.7 541 903.8 541C885 541 866 541 847.2 541C828.3 541 809.7 541 790.8 541C772 541 753 541 734.2 541C715.3 541 696.7 541 677.8 541C659 541 640 541 621.2 541C602.3 541 583.7 541 564.8 541C546 541 527 541 508.2 541C489.3 541 470.7 541 451.8 541C433 541 414 541 395.2 541C376.3 541 357.7 541 338.8 541C320 541 301 541 282.2 541C263.3 541 244.7 541 225.8 541C207 541 188 541 169.2 541C150.3 541 131.7 541 112.8 541C94 541 75 541 56.2 541C37.3 541 18.7 541 9.3 541L0 541Z" fill="#f7770f"></path><path d="M0 225L9.3 224.7C18.7 224.3 37.3 223.7 56.2 224.8C75 226 94 229 112.8 223.3C131.7 217.7 150.3 203.3 169.2 188.7C188 174 207 159 225.8 158.8C244.7 158.7 263.3 173.3 282.2 172.3C301 171.3 320 154.7 338.8 160.3C357.7 166 376.3 194 395.2 203.3C414 212.7 433 203.3 451.8 194.3C470.7 185.3 489.3 176.7 508.2 165.2C527 153.7 546 139.3 564.8 139.2C583.7 139 602.3 153 621.2 159.5C640 166 659 165 677.8 167.7C696.7 170.3 715.3 176.7 734.2 192.7C753 208.7 772 234.3 790.8 231.3C809.7 228.3 828.3 196.7 847.2 176.5C866 156.3 885 147.7 903.8 146.7C922.7 145.7 941.3 152.3 950.7 155.7L960 159L960 541L950.7 541C941.3 541 922.7 541 903.8 541C885 541 866 541 847.2 541C828.3 541 809.7 541 790.8 541C772 541 753 541 734.2 541C715.3 541 696.7 541 677.8 541C659 541 640 541 621.2 541C602.3 541 583.7 541 564.8 541C546 541 527 541 508.2 541C489.3 541 470.7 541 451.8 541C433 541 414 541 395.2 541C376.3 541 357.7 541 338.8 541C320 541 301 541 282.2 541C263.3 541 244.7 541 225.8 541C207 541 188 541 169.2 541C150.3 541 131.7 541 112.8 541C94 541 75 541 56.2 541C37.3 541 18.7 541 9.3 541L0 541Z" fill="#f76b21"></path><path d="M0 181L9.3 181.8C18.7 182.7 37.3 184.3 56.2 202C75 219.7 94 253.3 112.8 264.3C131.7 275.3 150.3 263.7 169.2 262C188 260.3 207 268.7 225.8 257.7C244.7 246.7 263.3 216.3 282.2 197.8C301 179.3 320 172.7 338.8 187.2C357.7 201.7 376.3 237.3 395.2 247.3C414 257.3 433 241.7 451.8 233.8C470.7 226 489.3 226 508.2 219.8C527 213.7 546 201.3 564.8 197.8C583.7 194.3 602.3 199.7 621.2 198C640 196.3 659 187.7 677.8 197.3C696.7 207 715.3 235 734.2 235.3C753 235.7 772 208.3 790.8 203.3C809.7 198.3 828.3 215.7 847.2 213.8C866 212 885 191 903.8 202C922.7 213 941.3 256 950.7 277.5L960 299L960 541L950.7 541C941.3 541 922.7 541 903.8 541C885 541 866 541 847.2 541C828.3 541 809.7 541 790.8 541C772 541 753 541 734.2 541C715.3 541 696.7 541 677.8 541C659 541 640 541 621.2 541C602.3 541 583.7 541 564.8 541C546 541 527 541 508.2 541C489.3 541 470.7 541 451.8 541C433 541 414 541 395.2 541C376.3 541 357.7 541 338.8 541C320 541 301 541 282.2 541C263.3 541 244.7 541 225.8 541C207 541 188 541 169.2 541C150.3 541 131.7 541 112.8 541C94 541 75 541 56.2 541C37.3 541 18.7 541 9.3 541L0 541Z" fill="#f65f2e"></path><path d="M0 280L9.3 286C18.7 292 37.3 304 56.2 300.2C75 296.3 94 276.7 112.8 270.5C131.7 264.3 150.3 271.7 169.2 266.3C188 261 207 243 225.8 239.7C244.7 236.3 263.3 247.7 282.2 246.5C301 245.3 320 231.7 338.8 234.3C357.7 237 376.3 256 395.2 266.7C414 277.3 433 279.7 451.8 275.3C470.7 271 489.3 260 508.2 249.8C527 239.7 546 230.3 564.8 228.2C583.7 226 602.3 231 621.2 241.2C640 251.3 659 266.7 677.8 273.8C696.7 281 715.3 280 734.2 285.8C753 291.7 772 304.3 790.8 309.2C809.7 314 828.3 311 847.2 307.5C866 304 885 300 903.8 300.2C922.7 300.3 941.3 304.7 950.7 306.8L960 309L960 541L950.7 541C941.3 541 922.7 541 903.8 541C885 541 866 541 847.2 541C828.3 541 809.7 541 790.8 541C772 541 753 541 734.2 541C715.3 541 696.7 541 677.8 541C659 541 640 541 621.2 541C602.3 541 583.7 541 564.8 541C546 541 527 541 508.2 541C489.3 541 470.7 541 451.8 541C433 541 414 541 395.2 541C376.3 541 357.7 541 338.8 541C320 541 301 541 282.2 541C263.3 541 244.7 541 225.8 541C207 541 188 541 169.2 541C150.3 541 131.7 541 112.8 541C94 541 75 541 56.2 541C37.3 541 18.7 541 9.3 541L0 541Z" fill="#f35339"></path><path d="M0 346L9.3 340.7C18.7 335.3 37.3 324.7 56.2 316.3C75 308 94 302 112.8 294C131.7 286 150.3 276 169.2 277.8C188 279.7 207 293.3 225.8 291C244.7 288.7 263.3 270.3 282.2 261.3C301 252.3 320 252.7 338.8 255.8C357.7 259 376.3 265 395.2 268.3C414 271.7 433 272.3 451.8 275.3C470.7 278.3 489.3 283.7 508.2 287.5C527 291.3 546 293.7 564.8 302C583.7 310.3 602.3 324.7 621.2 327C640 329.3 659 319.7 677.8 322.8C696.7 326 715.3 342 734.2 349C753 356 772 354 790.8 336.2C809.7 318.3 828.3 284.7 847.2 283.5C866 282.3 885 313.7 903.8 322C922.7 330.3 941.3 315.7 950.7 308.3L960 301L960 541L950.7 541C941.3 541 922.7 541 903.8 541C885 541 866 541 847.2 541C828.3 541 809.7 541 790.8 541C772 541 753 541 734.2 541C715.3 541 696.7 541 677.8 541C659 541 640 541 621.2 541C602.3 541 583.7 541 564.8 541C546 541 527 541 508.2 541C489.3 541 470.7 541 451.8 541C433 541 414 541 395.2 541C376.3 541 357.7 541 338.8 541C320 541 301 541 282.2 541C263.3 541 244.7 541 225.8 541C207 541 188 541 169.2 541C150.3 541 131.7 541 112.8 541C94 541 75 541 56.2 541C37.3 541 18.7 541 9.3 541L0 541Z" fill="#ef4843"></path><path d="M0 321L9.3 322.5C18.7 324 37.3 327 56.2 323.7C75 320.3 94 310.7 112.8 314.5C131.7 318.3 150.3 335.7 169.2 344C188 352.3 207 351.7 225.8 356C244.7 360.3 263.3 369.7 282.2 375.8C301 382 320 385 338.8 376.3C357.7 367.7 376.3 347.3 395.2 335.3C414 323.3 433 319.7 451.8 321.7C470.7 323.7 489.3 331.3 508.2 339C527 346.7 546 354.3 564.8 361.5C583.7 368.7 602.3 375.3 621.2 377.5C640 379.7 659 377.3 677.8 375.3C696.7 373.3 715.3 371.7 734.2 368C753 364.3 772 358.7 790.8 354.5C809.7 350.3 828.3 347.7 847.2 349.8C866 352 885 359 903.8 361.8C922.7 364.7 941.3 363.3 950.7 362.7L960 362L960 541L950.7 541C941.3 541 922.7 541 903.8 541C885 541 866 541 847.2 541C828.3 541 809.7 541 790.8 541C772 541 753 541 734.2 541C715.3 541 696.7 541 677.8 541C659 541 640 541 621.2 541C602.3 541 583.7 541 564.8 541C546 541 527 541 508.2 541C489.3 541 470.7 541 451.8 541C433 541 414 541 395.2 541C376.3 541 357.7 541 338.8 541C320 541 301 541 282.2 541C263.3 541 244.7 541 225.8 541C207 541 188 541 169.2 541C150.3 541 131.7 541 112.8 541C94 541 75 541 56.2 541C37.3 541 18.7 541 9.3 541L0 541Z" fill="#e93e4b"></path><path d="M0 356L9.3 363.2C18.7 370.3 37.3 384.7 56.2 383.8C75 383 94 367 112.8 366.8C131.7 366.7 150.3 382.3 169.2 390.3C188 398.3 207 398.7 225.8 389.8C244.7 381 263.3 363 282.2 364.7C301 366.3 320 387.7 338.8 392.3C357.7 397 376.3 385 395.2 384.5C414 384 433 395 451.8 402.7C470.7 410.3 489.3 414.7 508.2 414.3C527 414 546 409 564.8 398.5C583.7 388 602.3 372 621.2 365.5C640 359 659 362 677.8 364.8C696.7 367.7 715.3 370.3 734.2 368.2C753 366 772 359 790.8 360.5C809.7 362 828.3 372 847.2 380.3C866 388.7 885 395.3 903.8 395.5C922.7 395.7 941.3 389.3 950.7 386.2L960 383L960 541L950.7 541C941.3 541 922.7 541 903.8 541C885 541 866 541 847.2 541C828.3 541 809.7 541 790.8 541C772 541 753 541 734.2 541C715.3 541 696.7 541 677.8 541C659 541 640 541 621.2 541C602.3 541 583.7 541 564.8 541C546 541 527 541 508.2 541C489.3 541 470.7 541 451.8 541C433 541 414 541 395.2 541C376.3 541 357.7 541 338.8 541C320 541 301 541 282.2 541C263.3 541 244.7 541 225.8 541C207 541 188 541 169.2 541C150.3 541 131.7 541 112.8 541C94 541 75 541 56.2 541C37.3 541 18.7 541 9.3 541L0 541Z" fill="#e23553"></path><path d="M0 437L9.3 430.7C18.7 424.3 37.3 411.7 56.2 405.5C75 399.3 94 399.7 112.8 398.5C131.7 397.3 150.3 394.7 169.2 402C188 409.3 207 426.7 225.8 432C244.7 437.3 263.3 430.7 282.2 428.8C301 427 320 430 338.8 425C357.7 420 376.3 407 395.2 402.5C414 398 433 402 451.8 411.2C470.7 420.3 489.3 434.7 508.2 434.8C527 435 546 421 564.8 416.3C583.7 411.7 602.3 416.3 621.2 416C640 415.7 659 410.3 677.8 408.5C696.7 406.7 715.3 408.3 734.2 416.2C753 424 772 438 790.8 440C809.7 442 828.3 432 847.2 426.7C866 421.3 885 420.7 903.8 415.8C922.7 411 941.3 402 950.7 397.5L960 393L960 541L950.7 541C941.3 541 922.7 541 903.8 541C885 541 866 541 847.2 541C828.3 541 809.7 541 790.8 541C772 541 753 541 734.2 541C715.3 541 696.7 541 677.8 541C659 541 640 541 621.2 541C602.3 541 583.7 541 564.8 541C546 541 527 541 508.2 541C489.3 541 470.7 541 451.8 541C433 541 414 541 395.2 541C376.3 541 357.7 541 338.8 541C320 541 301 541 282.2 541C263.3 541 244.7 541 225.8 541C207 541 188 541 169.2 541C150.3 541 131.7 541 112.8 541C94 541 75 541 56.2 541C37.3 541 18.7 541 9.3 541L0 541Z" fill="#da2d5b"></path><path d="M0 435L9.3 435.8C18.7 436.7 37.3 438.3 56.2 440.7C75 443 94 446 112.8 449.3C131.7 452.7 150.3 456.3 169.2 457.5C188 458.7 207 457.3 225.8 458.2C244.7 459 263.3 462 282.2 464.5C301 467 320 469 338.8 463.5C357.7 458 376.3 445 395.2 446.8C414 448.7 433 465.3 451.8 466.3C470.7 467.3 489.3 452.7 508.2 445.3C527 438 546 438 564.8 444.5C583.7 451 602.3 464 621.2 467.8C640 471.7 659 466.3 677.8 459.7C696.7 453 715.3 445 734.2 442.8C753 440.7 772 444.3 790.8 449.2C809.7 454 828.3 460 847.2 461.3C866 462.7 885 459.3 903.8 457.5C922.7 455.7 941.3 455.3 950.7 455.2L960 455L960 541L950.7 541C941.3 541 922.7 541 903.8 541C885 541 866 541 847.2 541C828.3 541 809.7 541 790.8 541C772 541 753 541 734.2 541C715.3 541 696.7 541 677.8 541C659 541 640 541 621.2 541C602.3 541 583.7 541 564.8 541C546 541 527 541 508.2 541C489.3 541 470.7 541 451.8 541C433 541 414 541 395.2 541C376.3 541 357.7 541 338.8 541C320 541 301 541 282.2 541C263.3 541 244.7 541 225.8 541C207 541 188 541 169.2 541C150.3 541 131.7 541 112.8 541C94 541 75 541 56.2 541C37.3 541 18.7 541 9.3 541L0 541Z" fill="#d02762"></path><path d="M0 475L9.3 473.7C18.7 472.3 37.3 469.7 56.2 472.5C75 475.3 94 483.7 112.8 488.8C131.7 494 150.3 496 169.2 494.5C188 493 207 488 225.8 483.3C244.7 478.7 263.3 474.3 282.2 477.5C301 480.7 320 491.3 338.8 493.8C357.7 496.3 376.3 490.7 395.2 491.8C414 493 433 501 451.8 504.8C470.7 508.7 489.3 508.3 508.2 507.8C527 507.3 546 506.7 564.8 503.7C583.7 500.7 602.3 495.3 621.2 491C640 486.7 659 483.3 677.8 483C696.7 482.7 715.3 485.3 734.2 486.5C753 487.7 772 487.3 790.8 486.5C809.7 485.7 828.3 484.3 847.2 488C866 491.7 885 500.3 903.8 498.5C922.7 496.7 941.3 484.3 950.7 478.2L960 472L960 541L950.7 541C941.3 541 922.7 541 903.8 541C885 541 866 541 847.2 541C828.3 541 809.7 541 790.8 541C772 541 753 541 734.2 541C715.3 541 696.7 541 677.8 541C659 541 640 541 621.2 541C602.3 541 583.7 541 564.8 541C546 541 527 541 508.2 541C489.3 541 470.7 541 451.8 541C433 541 414 541 395.2 541C376.3 541 357.7 541 338.8 541C320 541 301 541 282.2 541C263.3 541 244.7 541 225.8 541C207 541 188 541 169.2 541C150.3 541 131.7 541 112.8 541C94 541 75 541 56.2 541C37.3 541 18.7 541 9.3 541L0 541Z" fill="#c62368"></path></svg>